<svg width="189" height="189" viewBox="0 0 189 189" fill="none" xmlns="http://www.w3.org/2000/svg">
<path d="M163.652 111.648L163.788 111.611C163.329 109.428 164.782 103.862 164.702 98.7762C164.621 93.6902 164.774 81.8928 164.774 81.8928C161.553 82.4286 157.558 81.5007 156.075 81.1047L156.1 80.9979C155.813 80.9056 155.548 80.7572 155.319 80.5613L155.253 80.7333C155.253 80.7333 153.935 81.6783 152.985 81.2294C152.054 80.593 151.297 79.7337 150.784 78.7299L150.776 78.7233C150.725 78.6751 150.435 78.4001 150.057 78.0108C149.264 77.1924 148.091 75.8685 147.991 75.1125C147.841 73.9671 155.462 67.458 156.416 67.4835C157.37 67.509 162.023 71.8645 163.894 72.7604C165.765 73.6562 171.673 76.6934 172.37 79.2884C172.37 79.2884 179.93 106.628 180.336 111.45C180.741 116.271 179.863 121.768 180.052 124.013C180.241 126.259 169.085 125.448 161.625 126.424C154.821 127.312 148.323 127.811 141.198 125.118C140.771 125.019 140.332 124.98 139.895 125.001C142.577 120.252 143.27 107.644 143.27 107.644L146.111 108.778C148.813 108.099 151.603 107.832 154.385 107.986C157.781 108.209 161.021 109.489 163.652 111.648Z" fill="#FFD997"/>
<path d="M169.622 3.84619L161.657 33.7148L156.306 29.2383L147.312 52.1867L141.144 47.1045L132.254 63.8036L139.567 38.4559L145.163 42.7594L155.268 16.891L159.917 22.3361L169.622 3.84619Z" fill="white"/>
<path d="M152.985 81.2294C152.985 81.2294 150.582 82.1744 149.639 80.807C148.711 79.4604 150.057 78.0107 150.057 78.0107C150.435 78.4001 150.725 78.6722 150.777 78.7233L150.784 78.7299C151.298 79.7337 152.054 80.593 152.985 81.2294Z" fill="#FFD997"/>
<path d="M130.09 96.4634C130.993 99.4099 128.436 100.17 126.099 100.228C125.863 100.228 125.626 100.221 125.39 100.228C124.586 100.215 123.787 100.115 123.005 99.9315L122.484 99.9826C122.275 97.8091 122.059 96.2725 122.059 96.2725L121.273 96.1922C121.651 95.9985 121.971 95.71 122.204 95.355C122.436 95 122.572 94.5907 122.598 94.1673C122.624 93.7439 122.54 93.3209 122.353 92.94C122.167 92.559 121.884 92.2332 121.533 91.9945C122.594 90.9002 123.373 89.5638 123.801 88.1011L124.128 88.1956C124.128 88.1956 128.825 92.3356 130.09 96.4634Z" fill="#ADDAB1"/>
<path d="M127.231 137.429C128.79 138.72 129.27 140.728 126.522 142.36C123.774 143.992 118.175 143.359 116.552 140.761C115.309 138.768 112.656 137.245 111.148 136.298C110.928 136.161 110.753 135.962 110.646 135.725C110.54 135.489 110.506 135.226 110.55 134.97L111.349 132.383C111.349 132.383 113.165 133.48 113.753 133.132C114.341 132.783 114.49 128.963 118.384 127.635C118.568 127.56 118.767 127.53 118.964 127.55C119.162 127.569 119.352 127.636 119.518 127.745C120.699 128.531 120.802 131.422 120.802 131.422L122.632 133.974C123.381 135.506 125.674 136.137 127.231 137.429Z" fill="#ADDAB1"/>
<path d="M92.7414 90.7693L92.2831 90.8723C92.1277 90.5695 91.9108 90.3025 91.6463 90.0883C91.3818 89.8742 91.0755 89.7176 90.747 89.6286C90.4185 89.5397 90.075 89.5203 89.7386 89.5717C89.4021 89.6232 89.0801 89.7443 88.7932 89.9273L88.746 89.7582C86.8456 87.1679 86.7019 82.7831 89.5965 81.8476C90.0166 81.7174 90.4552 81.6568 90.8949 81.668C91.4987 83.673 92.4788 85.5447 93.7828 87.183C90.6086 74.898 94.931 69.8631 100.578 65.2808C104.226 77.6168 116.549 76.4318 117.831 76.8759L117.975 76.8428C118.876 80.7514 118.512 84.8451 116.935 88.5334C118.446 87.1526 119.699 85.5152 120.638 83.6969L120.678 83.7187C121.218 83.6945 121.758 83.7642 122.275 83.9247C124.028 84.5115 124.315 86.2617 123.797 88.1035C123.369 89.5663 122.59 90.9027 121.529 91.9969C121.254 91.8096 120.944 91.6802 120.618 91.6168C120.292 91.5534 119.956 91.5571 119.631 91.6279C119.306 91.6987 118.999 91.8349 118.728 92.0283C118.458 92.2218 118.23 92.4683 118.058 92.7529L117.651 92.5431C116.02 95.0615 113.893 97.2205 111.399 98.8878C109.404 100.235 107.034 100.913 104.629 100.825C100.559 100.517 97.3048 97.6773 95.0406 94.588C94.1632 93.3853 93.3939 92.1074 92.7414 90.7693ZM111.818 79.2583C113.282 79.2495 114.746 79.3293 116.2 79.4973C114.618 78.2348 109.522 77.4788 109.136 78.3454C108.655 79.4161 110.292 79.3802 111.818 79.2583ZM108.435 92.8388C109.249 92.2096 110.004 91.5084 110.692 90.7438C108.938 90.3534 107.159 90.0838 105.368 89.9368C103.575 89.7464 101.765 89.7807 99.9811 90.0388C100.621 90.8596 101.324 91.629 102.084 92.3399C102.914 93.2679 104.068 93.8428 105.309 93.9464C105.878 93.9817 106.448 93.9019 106.985 93.7115C107.522 93.5212 108.015 93.2244 108.435 92.8388ZM100.234 78.576C101.746 78.7962 103.376 78.936 102.968 77.8351C102.641 76.9468 97.5042 77.373 95.842 78.5325C97.3056 78.4594 98.7724 78.4739 100.234 78.576Z" fill="#FFD997"/>
<path d="M90.8948 81.6661C89.8897 78.6349 89.3143 75.4778 89.1853 72.287C88.7921 64.8385 97.111 55.8373 106.618 57.698L106.64 57.5799C108.665 57.295 110.728 57.4809 112.669 58.123C114.609 58.7652 116.376 59.8463 117.831 61.2824C121.688 64.8734 123.86 70.328 123.387 74.6863C123.317 75.3251 123.229 75.9375 123.123 76.5291C122.684 79.0355 121.846 81.455 120.639 83.695C119.7 85.5133 118.447 87.1505 116.936 88.5306C118.512 84.8425 118.876 80.7492 117.976 76.8409L117.832 76.874C116.548 76.4336 104.224 77.6149 100.579 65.2788C94.9318 69.8611 90.6094 74.8999 93.7836 87.1811C92.4793 85.5428 91.4989 83.6711 90.8948 81.6661Z" fill="black"/>
<path d="M122.483 99.981C122.746 102.57 122.861 105.172 122.828 107.774C122.688 112.845 119.98 124.784 119.98 124.784L119.508 127.742C119.342 127.633 119.152 127.566 118.954 127.547C118.757 127.527 118.558 127.557 118.374 127.632C114.484 128.96 114.33 132.78 113.743 133.129C113.156 133.477 111.339 132.38 111.339 132.38C111.288 132.014 112.081 129.262 112.026 128.656C111.604 124.128 111.081 114.896 110.18 111.774C110.133 111.611 110.095 111.445 110.066 111.278C109.88 109.884 109.869 108.472 110.033 107.076C110.324 104.332 110.787 101.609 111.42 98.9236L111.399 98.8867C113.893 97.2195 116.02 95.0605 117.651 92.542L118.058 92.7518C117.856 93.0856 117.738 93.4633 117.713 93.8527C117.684 94.2845 117.771 94.7161 117.964 95.1035C118.156 95.491 118.448 95.8203 118.81 96.0579C119.171 96.2956 119.59 96.433 120.022 96.4561C120.454 96.4793 120.884 96.3873 121.269 96.1897L122.055 96.27C122.055 96.27 122.274 97.8141 122.483 99.981Z" fill="#FFD997"/>
<path d="M123.124 76.5288C123.113 78.9612 122.973 82.6893 122.273 83.9187C121.757 83.7582 121.217 83.6885 120.677 83.7127L120.637 83.691C121.844 81.4523 122.684 79.0341 123.124 76.5288Z" fill="#ADDAB1"/>
<path d="M120.622 39.0059L118.392 40.6247L115.57 36.3457L116.737 41.4204L113.101 43.4351L111.677 39.0465L111.262 39.0097C112.696 37.1679 113.317 34.4302 111.203 33.8178L111.302 33.4805C111.632 32.5664 111.909 31.634 112.131 30.688L112.37 30.7428C112.37 30.7428 119.133 36.0631 120.622 39.0059Z" fill="#ADDAB1"/>
<path d="M116.2 79.4971C114.746 79.329 113.282 79.2492 111.818 79.258C110.292 79.3827 108.655 79.4158 109.136 78.3451C109.527 77.4786 114.618 78.2346 116.2 79.4971Z" fill="#ADDAB1"/>
<path d="M100.057 26.8055C96.164 26.5003 91.4229 26.4455 91.4229 26.4455C91.4229 26.4455 90.7557 26.3831 89.9808 26.2801C89.9118 26.4275 88.4329 29.5876 87.2072 31.5787L87.0012 31.454C86.829 30.5026 86.7103 29.5422 86.6459 28.5774C86.4513 25.5392 86.7225 20.7982 89.7975 17.6721C91.1961 16.1852 92.9002 15.0188 94.7924 14.2531C96.6847 13.4873 98.7204 13.1405 100.759 13.2363C102.79 13.4627 104.745 14.1345 106.485 15.2038C108.226 16.2732 109.709 17.7136 110.828 19.4223C113.335 23.0133 112.824 27.7222 112.131 30.6876C111.909 31.6337 111.632 32.5662 111.302 33.4801L111.203 33.8174C111.193 33.8132 111.184 33.8106 111.173 33.8099C109.556 32.2355 109.211 24.4827 109.211 24.4827C109.211 24.4827 106.422 27.5615 102.462 27.0475C101.741 26.952 100.919 26.8708 100.057 26.8055Z" fill="#ADDAB1"/>
<path d="M111.404 98.8894L111.425 98.9263C110.792 101.612 110.329 104.336 110.038 107.08C108.67 108.579 106.898 109.651 104.935 110.169C104.22 110.198 103.707 110.257 103.707 110.257C103.683 110.259 103.66 110.259 103.637 110.257C101.388 110.125 97.293 105.384 95.4984 104.232L94.9116 104.147C95.4495 102.747 95.5442 101.215 95.1828 99.7588C94.9927 99.2605 94.7698 98.7753 94.5156 98.3064L94.6177 98.2506L94.9295 94.6662L95.0439 94.585C97.3119 97.6789 100.563 100.519 104.632 100.822C107.037 100.911 109.408 100.235 111.404 98.8894Z" fill="#FFD997"/>
<path d="M87.074 31.8028V31.7952C87.1184 31.7262 87.1619 31.6525 87.2063 31.5788C88.4348 29.5943 89.9109 26.4276 89.9799 26.2802C90.7548 26.3832 91.4219 26.4455 91.4219 26.4455C91.4219 26.4455 96.163 26.5004 100.056 26.8056C100.918 26.8708 101.74 26.9521 102.46 27.0437C106.419 27.5578 109.208 24.479 109.208 24.479C109.208 24.479 109.553 32.228 111.171 33.8062C111.181 33.8069 111.191 33.8094 111.2 33.8137C113.314 34.4261 112.693 37.1637 111.258 39.0055C110.313 40.2199 108.998 41.0458 107.883 40.6054L107.7 40.4693C106.596 42.0345 105.129 43.3077 103.424 44.1794L103.491 44.1974L103.476 44.2749C103.476 44.2749 103.336 47.5729 97.9386 47.1514C93.5434 46.8065 92.4794 44.1539 92.2299 43.1116C92.1949 42.9728 92.1703 42.8316 92.1562 42.6892L92.3726 42.5247C91.1852 41.5431 90.2027 40.3373 89.4809 38.9762L89.1917 39.0462C87.984 39.3032 86.7914 38.2023 86.0609 36.7782C85.0044 34.7379 84.9014 32.0352 87.074 31.8028ZM103.044 29.8835C103.87 30.2511 106.93 29.8655 106.93 29.8655C105.862 28.8562 103.044 28.3459 102.736 28.963C102.428 29.5801 102.225 29.5168 103.046 29.8835H103.044ZM102.234 38.2609L95.2076 37.674C95.2076 37.674 95.9815 40.6895 98.6266 40.9097C101.131 41.1195 102.236 38.2609 102.236 38.2609H102.234ZM95.7907 29.2834C96.6638 29.0594 96.4474 29.0849 96.2452 28.4244C96.043 27.7638 93.1815 27.8045 91.9596 28.6228C91.9615 28.6181 94.9194 29.5055 95.7926 29.2787L95.7907 29.2834Z" fill="#FFD997"/>
<path d="M106.933 29.862C106.933 29.862 103.873 30.2475 103.047 29.8799C102.221 29.5123 102.435 29.5719 102.739 28.9595C103.044 28.3471 105.865 28.8565 106.933 29.862Z" fill="#ADDAB1"/>
<path d="M102.966 77.835C103.373 78.9359 101.744 78.796 100.232 78.5759C98.7703 78.4738 97.3035 78.4593 95.8398 78.5324C97.5021 77.3729 102.639 76.9467 102.966 77.835Z" fill="#ADDAB1"/>
<path d="M73.1347 131.275C74.9368 129.594 76.1218 128.552 76.1218 128.552L78.1139 122.7C77.8427 119.511 77.4316 115.148 77.3806 113.849C77.3295 112.55 78.129 111.75 78.129 110.503C78.129 109.255 77.3324 106.654 78.6318 106.606C78.6819 106.603 78.7323 106.606 78.782 106.613C79.985 106.742 80.9763 108.976 80.8771 110.701C80.8057 111.533 80.8082 112.369 80.8846 113.2L81.7758 114.943L81.8495 115.006C83.0525 113.578 84.3339 112.257 84.3339 112.257C84.3339 112.257 87.8776 101.99 88.5023 100.842C89.1269 99.6937 91.9733 99.4471 91.2314 102.185C90.4896 104.922 88.6856 110.705 88.6856 110.705L90.054 111.2C90.054 111.2 92.355 107.905 93.1659 107.098C93.2514 107.014 93.3531 106.949 93.4647 106.906C93.5763 106.863 93.6956 106.843 93.8151 106.848C94.7799 106.86 95.998 108.154 95.0918 110.103C95.5151 110.28 95.8776 110.577 96.1351 110.957C96.3925 111.337 96.5337 111.784 96.5414 112.242C96.5095 112.609 96.4047 112.966 96.2333 113.291C96.2333 113.291 97.6272 114.803 96.3581 118.227C94.8302 121.988 92.6363 125.442 89.882 128.424C89.2905 129.057 88.5624 129.548 87.7529 129.858C87.7529 129.858 87.4968 130.438 87.0413 131.448C86.1426 133.443 84.469 137.124 82.5176 141.27C80.2572 146.073 77.6149 151.504 75.3545 155.698C74.3549 157.629 73.2387 159.498 72.012 161.294C67.476 167.531 63.2169 167.781 61.514 170.192C59.8111 172.602 53.8529 172.037 52.4326 168.207C51.0122 164.377 49.7497 149.801 53.2217 144.694C55.3205 141.601 57.9277 134.285 59.8177 127.745C60.0493 127.833 69.3509 131.352 72.9977 131.128L73.1347 131.275Z" fill="#FFD997"/>
<path d="M96.2465 28.42C96.4487 29.0815 96.6651 29.055 95.792 29.279C94.9188 29.5029 91.9609 28.6175 91.9609 28.6175C93.1828 27.8001 96.049 27.7632 96.2465 28.42Z" fill="#ADDAB1"/>
<path d="M89.1826 131.395C90.276 132.302 90.0737 135.19 90.0737 135.19L91.6264 137.92C92.2132 139.52 94.4264 140.393 95.8382 141.839C97.2501 143.284 97.5194 145.335 94.6097 146.668C91.7001 148 86.2068 146.785 84.8677 144.033C84.3207 143.011 83.5992 142.092 82.7358 141.318L82.5156 141.27C84.4671 137.124 86.1406 133.443 87.0393 131.447L87.0913 131.469C87.4075 131.345 87.7326 131.244 88.0637 131.169C88.2547 131.113 88.4562 131.105 88.6511 131.144C88.846 131.184 89.0284 131.27 89.1826 131.395Z" fill="#ADDAB1"/>
<path d="M80.1164 104.234L75.5039 100.196C76.2736 98.049 77.2023 95.9626 78.2822 93.954C81.5254 89.331 87.6311 90.741 87.6311 90.741L87.9212 90.8912C87.7719 91.182 87.6844 91.5005 87.6642 91.8268C87.6359 92.2584 87.7225 92.6898 87.9153 93.077C88.1081 93.4643 88.4 93.7935 88.7615 94.0311C89.1229 94.2687 89.5409 94.4063 89.9728 94.4298C90.4047 94.4532 90.8351 94.3618 91.2202 94.1647L91.8439 94.1902C92.8275 95.4986 93.7201 96.8731 94.5154 98.3038C94.7696 98.7727 94.9925 99.2579 95.1826 99.7563C95.544 101.212 95.4493 102.744 94.9114 104.145C94.6214 105.074 94.2544 105.977 93.8142 106.846C93.6947 106.841 93.5755 106.86 93.4639 106.903C93.3522 106.946 93.2505 107.012 93.165 107.095C92.3542 107.902 90.0531 111.197 90.0531 111.197L88.6848 110.702C88.6848 110.702 90.4897 104.915 91.2306 102.182C91.9715 99.4491 89.1214 99.6939 88.5014 100.839C87.8815 101.985 84.333 112.254 84.333 112.254C84.333 112.254 83.0526 113.577 81.8486 115.002L81.7749 114.94L80.8838 113.197C80.8074 112.366 80.8048 111.53 80.8762 110.698C80.9755 108.974 79.9841 106.739 78.7812 106.61L79.592 106.604C79.7123 105.803 79.8875 105.011 80.1164 104.234Z" fill="#FFD997"/>
<path d="M95.0461 94.5849L94.9318 94.6662L94.6199 98.2506L94.5179 98.3064C93.7226 96.8756 92.83 95.5012 91.8464 94.1928L91.2227 94.1673C91.8001 93.8707 92.2361 93.3571 92.435 92.7392C92.6338 92.1212 92.5791 91.4497 92.2829 90.872L92.7413 90.769C93.3957 92.1064 94.167 93.3833 95.0461 94.5849Z" fill="#ADDAB1"/>
<path d="M92.2817 90.8721C92.4537 91.2073 92.546 91.5777 92.5512 91.9544C92.5565 92.3311 92.4747 92.704 92.3121 93.0438C92.1496 93.3837 91.9107 93.6815 91.6141 93.9138C91.3176 94.1462 90.9713 94.3069 90.6024 94.3834C90.2335 94.4599 89.8519 94.4501 89.4874 94.3549C89.1229 94.2596 88.7853 94.0814 88.501 93.8342C88.2167 93.5869 87.9934 93.2774 87.8484 92.9296C87.7035 92.5818 87.6408 92.2053 87.6654 91.8293C87.6925 91.4463 87.8085 91.0749 88.004 90.7444C88.1995 90.4139 88.4692 90.1334 88.7918 89.9252C89.0787 89.7421 89.4007 89.621 89.7371 89.5696C90.0736 89.5181 90.417 89.5375 90.7456 89.6265C91.0741 89.7154 91.3804 89.872 91.6449 90.0862C91.9094 90.3003 92.1263 90.5674 92.2817 90.8702V90.8721Z" fill="white"/>
<path d="M90.8962 81.6657C90.4565 81.6545 90.0179 81.7152 89.5977 81.8453L89.5609 81.7385C89.1389 79.9622 88.9734 78.1346 89.0695 76.3114C89.0761 74.1804 89.1866 72.2866 89.1866 72.2866C89.3157 75.4775 89.8911 78.6345 90.8962 81.6657Z" fill="#ADDAB1"/>
<path d="M89.8836 128.425L89.9602 128.507L89.1824 131.397C89.0286 131.272 88.8469 131.187 88.6527 131.147C88.4586 131.108 88.2577 131.116 88.0673 131.171C87.7362 131.246 87.4112 131.347 87.0949 131.471L87.043 131.449C87.4985 130.44 87.7546 129.86 87.7546 129.86C88.564 129.55 89.2922 129.059 89.8836 128.425Z" fill="#FFD997"/>
<path d="M89.5592 81.7424L89.596 81.8491C86.7005 82.7847 86.8442 87.1695 88.7455 89.7597L88.7928 89.9289C88.419 90.1652 88.1181 90.5005 87.9234 90.8975L87.6333 90.7473C87.6333 90.7473 81.5276 89.3298 78.2844 93.9603C77.2045 95.9689 76.2758 98.0553 75.5061 100.202C75.5061 100.202 72.3139 103.32 70.5051 103.768C70.3997 103.775 70.2953 103.793 70.1933 103.82C70.0027 103.842 69.8107 103.796 69.6499 103.692C69.3852 103.506 69.1437 103.289 68.9308 103.045C68.0803 102.077 67.7316 100.661 68.7106 98.7051C69.9325 96.2576 65.7934 97.4983 65.0374 92.7979C64.2814 88.0975 78.2834 74.2769 78.2834 74.2769C78.9097 74.7897 79.6282 75.1781 80.4002 75.4212L88.7625 76.3171H89.0678C88.9718 78.1397 89.1373 79.9667 89.5592 81.7424Z" fill="#ADDAB1"/>
<path d="M87.0009 31.4542L87.2069 31.579C87.1625 31.6527 87.1191 31.7264 87.0746 31.7954V31.8029C84.9011 32.0307 85.0051 34.7381 86.0616 36.7859L85.8159 36.8927L83.6878 40.9836L80.4332 38.3933L82.4262 33.5824L78.9297 37.3359L77 35.3694C78.9552 32.7167 86.5029 28.5852 86.5029 28.5852L86.6428 28.5776C86.7081 29.5425 86.8277 30.5028 87.0009 31.4542Z" fill="#ADDAB1"/>
<path d="M80.1554 57.1838C80.1554 57.1838 77.4149 70.445 77.3818 72.4852C77.3884 72.8324 77.4729 73.1737 77.6291 73.4838C77.7853 73.7939 78.0092 74.065 78.2843 74.2769C78.2843 74.2769 64.286 88.0957 65.0382 92.7989C65.7905 97.5022 69.9324 96.2586 68.7105 98.7061C67.7315 100.662 68.0764 102.078 68.9307 103.047C63.8259 105.925 59.1043 109.435 54.8776 113.494C45.2972 115.589 25.4531 107.068 25.4531 107.068C25.4531 107.068 40.5779 109.109 42.2514 86.733C44.0384 62.8245 66.8214 52.454 72.1134 51.0781C76.1524 54.2741 80.1554 57.1838 80.1554 57.1838Z" fill="black"/>
<path d="M59.8193 127.745C57.9293 134.287 55.3211 141.601 53.2222 144.694C49.7503 149.801 51.0128 164.376 52.4331 168.207C53.8535 172.038 59.8117 172.606 61.5146 170.192C63.2175 167.777 67.4738 167.535 72.0126 161.294C73.2393 159.498 74.3555 157.629 75.3551 155.698L77.3963 169.854L74.7985 183.02C74.7985 183.02 49.6085 183.871 35.203 183.02C13.5351 181.742 9.05859 147.222 9.05859 147.222C9.05859 147.222 27.2366 156.619 38.707 134.653C42.8699 126.743 48.3354 119.59 54.8741 113.495C59.1004 109.433 63.822 105.92 68.9272 103.04C69.1401 103.284 69.3816 103.501 69.6463 103.686C69.8071 103.791 69.9991 103.836 70.1897 103.815C67.2507 104.501 62.9207 111.883 62.246 117.31C61.6702 120.839 60.8595 124.325 59.8193 127.745Z" fill="#ADDAB1"/>
<path d="M56.8681 15.7936C57.0704 15.6688 57.1989 15.5989 57.1989 15.5989C57.103 14.4504 56.9088 13.3122 56.6187 12.1969C56.1273 10.2889 57.4521 9.96196 57.8264 10.854C58.2006 11.7461 58.9604 15.3343 58.9604 15.3343C58.9604 15.3343 59.9394 18.2326 61.0951 18.7023C62.2508 19.1719 63.4075 17.8111 64.7646 17.1392C66.1216 16.4673 67.0326 18.1334 66.0384 18.6768C65.0443 19.2201 63.5427 20.115 63.3924 21.146C63.2422 22.177 61.6574 23.6153 61.6574 23.6153L61.6867 23.7259L57.2452 24.944C55.7243 23.9428 54.4286 22.6358 53.4406 21.1063C53.4406 21.1063 49.4716 19.7777 49.0227 19.0406C48.5739 18.3035 48.7988 17.7081 50.4402 18.4462C51.4206 18.8904 52.4707 19.1609 53.5436 19.2456C53.5436 19.2456 53.5994 19.1389 53.6721 18.9848C53.8233 18.6957 54.0577 18.2288 54.1749 18.0455C54.3001 17.8576 54.4428 17.682 54.6011 17.521C54.8256 17.2921 55.0646 17.0778 55.3164 16.8794C55.812 16.4875 56.3302 16.1249 56.8681 15.7936Z" fill="#FFD997"/>
<path d="M56.8708 15.7936C56.3317 16.1227 55.8124 16.483 55.3154 16.8728L55.1207 16.7329C55.1207 16.7329 53.3923 13.1844 52.7317 12.0079C52.0712 10.8314 53.0436 9.98276 53.7334 10.6499C54.8835 12.2987 55.9313 14.0164 56.8708 15.7936Z" fill="#FFD997"/>
<path d="M54.5995 17.5144C54.4412 17.6754 54.2985 17.8511 54.1733 18.0389C54.0561 18.2279 53.8218 18.6891 53.6706 18.9782C53.6706 18.9782 51.396 16.2302 50.1996 15.1482C49.0032 14.0661 50.1486 13.3527 50.8715 13.9404C51.2854 14.2778 54.5995 17.5144 54.5995 17.5144Z" fill="#FFD997"/>
<path d="M88.3242 35.3848C88.44 36.6544 88.836 37.8825 89.4837 38.9805C90.2059 40.3402 91.1885 41.5446 92.3754 42.5252C94.0093 43.8541 96.0135 44.6461 98.1144 44.7932" stroke="black" stroke-width="0.980065" stroke-linecap="round" stroke-linejoin="round"/>
<path d="M89.1917 39.0501C87.984 39.3072 86.7914 38.2063 86.0609 36.7821C85.0044 34.7343 84.9014 32.0269 87.074 31.7992C87.4082 31.7642 87.7458 31.7791 88.0757 31.8436" stroke="black" stroke-width="0.980065" stroke-linecap="round" stroke-linejoin="round"/>
<path d="M103.413 44.1831C102.44 44.5978 101.411 44.8638 100.359 44.9722" stroke="black" stroke-width="0.980065" stroke-linecap="round" stroke-linejoin="round"/>
<path d="M109.348 37.1382C109.035 38.3514 108.474 39.4867 107.701 40.4731C106.598 42.0382 105.131 43.3115 103.426 44.1832" stroke="black" stroke-width="0.980065" stroke-linecap="round" stroke-linejoin="round"/>
<path d="M107.883 40.6096C108.998 41.05 110.309 40.224 111.258 39.0097C112.693 37.1679 113.314 34.4302 111.2 33.8179C111.191 33.8136 111.181 33.811 111.17 33.8103C110.847 33.7226 110.512 33.6819 110.176 33.6893" stroke="black" stroke-width="0.980065" stroke-linecap="round" stroke-linejoin="round"/>
<path d="M111.302 33.4801C111.632 32.566 111.908 31.6336 112.131 30.6876C112.824 27.7222 113.335 23.0114 110.828 19.4223C109.709 17.7136 108.226 16.2732 106.485 15.2038C104.745 14.1345 102.79 13.4627 100.76 13.2363C98.7204 13.1405 96.6847 13.4873 94.7924 14.2531C92.9002 15.0188 91.1961 16.1852 89.7975 17.6721C86.7225 20.7982 86.4513 25.5392 86.6459 28.5774C86.7103 29.5422 86.829 30.5026 87.0013 31.454" stroke="black" stroke-width="0.980065" stroke-linecap="round" stroke-linejoin="round"/>
<path d="M99.2651 32.6685C100.909 35.5819 98.7812 36.2651 98.7812 36.2651" stroke="black" stroke-width="0.980065" stroke-linecap="round" stroke-linejoin="round"/>
<path d="M92.1641 32.1772C92.7055 31.869 93.3274 31.7319 93.9483 31.7836C94.5691 31.8354 95.1597 32.0737 95.6426 32.4673" stroke="black" stroke-width="0.980065" stroke-linecap="round" stroke-linejoin="round"/>
<path d="M106.147 33.3404C105.663 32.9477 105.073 32.7099 104.452 32.6582C103.831 32.6064 103.21 32.7431 102.668 33.0503" stroke="black" stroke-width="0.980065" stroke-linecap="round" stroke-linejoin="round"/>
<path d="M91.9609 28.6184C93.1828 27.8 96.049 27.7679 96.2465 28.4199C96.444 29.072 96.6651 29.055 95.792 29.2789C94.9188 29.5029 91.9609 28.6184 91.9609 28.6184Z" stroke="black" stroke-width="0.980065" stroke-linecap="round" stroke-linejoin="round"/>
<path d="M106.933 29.8618C105.865 28.8526 103.047 28.3423 102.739 28.9594C102.431 29.5764 102.226 29.5131 103.047 29.8798C103.868 30.2465 106.933 29.8618 106.933 29.8618Z" stroke="black" stroke-width="0.980065" stroke-linecap="round" stroke-linejoin="round"/>
<path d="M92.1523 42.6968C92.1664 42.8392 92.191 42.9804 92.2261 43.1192C92.4755 44.1587 93.5396 46.8141 97.9348 47.1591C103.333 47.5805 103.473 44.2825 103.473 44.2825" stroke="black" stroke-width="0.980065" stroke-linecap="round" stroke-linejoin="round"/>
<path d="M95.2109 37.6743L102.237 38.2612C102.237 38.2612 101.132 41.1198 98.63 40.9072C95.9849 40.6898 95.2109 37.6743 95.2109 37.6743Z" stroke="black" stroke-width="0.980065" stroke-linecap="round" stroke-linejoin="round"/>
<path d="M111.17 33.8061C109.553 32.2318 109.208 24.479 109.208 24.479C109.208 24.479 106.419 27.5578 102.459 27.0437C101.74 26.9492 100.918 26.8708 100.056 26.8056C96.1629 26.5003 91.4219 26.4455 91.4219 26.4455C91.4219 26.4455 96.3132 22.9887 98.0236 20.6479" stroke="black" stroke-width="0.980065" stroke-linecap="round" stroke-linejoin="round"/>
<path d="M91.4234 26.4458C91.4234 26.4458 90.7563 26.3835 89.9814 26.2805C89.3832 26.1963 88.7236 26.0915 88.2539 25.9724C89.954 24.7673 91.5483 23.4196 93.0195 21.9438" stroke="black" stroke-width="0.980065" stroke-linecap="round" stroke-linejoin="round"/>
<path d="M89.9801 26.2769C89.9111 26.4281 88.4322 29.591 87.2065 31.5793C87.1621 31.653 87.1186 31.7267 87.0742 31.7957" stroke="black" stroke-width="0.980065" stroke-linecap="round" stroke-linejoin="round"/>
<path d="M100.059 26.806C101.995 25.4506 103.712 23.8071 105.151 21.9326" stroke="black" stroke-width="0.980065" stroke-linecap="round" stroke-linejoin="round"/>
<path d="M91.3477 86.5791C91.5533 88.049 92.0257 89.469 92.7415 90.7692C93.3959 92.1066 94.1672 93.3835 95.0464 94.5851C97.3144 97.6791 100.565 100.519 104.634 100.822" stroke="black" stroke-width="0.980065" stroke-linecap="round" stroke-linejoin="round"/>
<path d="M88.746 89.756C86.8456 87.1658 86.7019 82.781 89.5965 81.8454C90.0166 81.7153 90.4552 81.6546 90.8949 81.6659C91.1643 81.672 91.433 81.6964 91.6991 81.7386" stroke="black" stroke-width="0.980065" stroke-linecap="round" stroke-linejoin="round"/>
<path d="M119.625 88.4868C119.223 89.9488 118.555 91.3243 117.655 92.5446C116.025 95.0631 113.897 97.2221 111.403 98.8894C109.408 100.236 107.038 100.915 104.633 100.827" stroke="black" stroke-width="0.980065" stroke-linecap="round" stroke-linejoin="round"/>
<path d="M121.534 91.9948C122.595 90.9005 123.374 89.5642 123.802 88.1014C124.32 86.2596 124.034 84.5104 122.28 83.9226C121.764 83.7621 121.224 83.6924 120.684 83.7166" stroke="black" stroke-width="0.980065" stroke-linecap="round" stroke-linejoin="round"/>
<path d="M107.829 81.8418C107.744 82.7308 107.77 83.6268 107.905 84.5095C108.959 87.8558 106.508 87.904 106.508 87.904" stroke="black" stroke-width="0.980065" stroke-linecap="round" stroke-linejoin="round"/>
<path d="M97.4141 81.8371C98.0535 81.4202 98.8117 81.224 99.5731 81.2784C100.334 81.3329 101.057 81.6349 101.631 82.1386" stroke="black" stroke-width="0.980065" stroke-linecap="round" stroke-linejoin="round"/>
<path d="M114.275 83.0305C113.704 82.5242 112.981 82.2204 112.22 82.166C111.458 82.1117 110.7 82.3099 110.062 82.73" stroke="black" stroke-width="0.980065" stroke-linecap="round" stroke-linejoin="round"/>
<path d="M95.8398 78.5295C97.5021 77.3699 102.644 76.9437 102.966 77.832C103.373 78.933 101.744 78.7931 100.232 78.5729C98.7703 78.4709 97.3035 78.4564 95.8398 78.5295Z" stroke="black" stroke-width="0.980065" stroke-linecap="round" stroke-linejoin="round"/>
<path d="M116.2 79.4971C114.618 78.2346 109.522 77.4786 109.136 78.3451C108.655 79.4158 110.292 79.3846 111.818 79.258C113.282 79.2492 114.746 79.329 116.2 79.4971Z" stroke="black" stroke-width="0.980065" stroke-linecap="round" stroke-linejoin="round"/>
<path d="M99.9805 90.0386L110.687 90.7435C109.999 91.5082 109.244 92.2094 108.431 92.8386C108.012 93.2227 107.52 93.5185 106.984 93.7083C106.448 93.8981 105.88 93.978 105.312 93.9433C104.071 93.8397 102.917 93.2648 102.087 92.3368C101.326 91.6267 100.622 90.8583 99.9805 90.0386Z" stroke="black" stroke-width="0.980065" stroke-linecap="round" stroke-linejoin="round"/>
<path d="M112.369 30.7427C112.369 30.7427 119.132 36.063 120.621 39.0058L118.391 40.6245L115.569 36.3456L116.736 41.4202L113.1 43.435L111.676 39.0464" stroke="black" stroke-width="0.980065" stroke-linecap="round" stroke-linejoin="round"/>
<path d="M86.5068 28.5854C86.5068 28.5854 78.9591 32.717 77.0039 35.3696L78.9336 37.3361L82.4301 33.5826L80.4371 38.3936L83.6917 40.9838L85.8198 36.8929" stroke="black" stroke-width="0.980065" stroke-linecap="round" stroke-linejoin="round"/>
<path d="M103.41 44.1831H103.424L103.49 44.2011C104.32 44.4212 111.391 46.3519 113.937 49.0744C117.995 53.4044 117.83 61.2782 117.83 61.2782" stroke="black" stroke-width="0.980065" stroke-linecap="round" stroke-linejoin="round"/>
<path d="M56.8784 15.805L56.8708 15.7937C55.9313 14.0162 54.8835 12.2982 53.7334 10.6491C53.0436 9.98194 52.0712 10.8258 52.7317 12.0071C53.3923 13.1883 55.1207 16.7321 55.1207 16.7321" stroke="black" stroke-width="0.980065" stroke-linecap="round" stroke-linejoin="round"/>
<path d="M57.2413 24.9374C55.7204 23.9362 54.4247 22.6292 53.4367 21.0997C53.4367 21.0997 49.4677 19.7711 49.0188 19.034C48.57 18.2969 48.7949 17.7015 50.4363 18.4396C51.4167 18.8838 52.4668 19.1543 53.5397 19.239C53.5397 19.239 53.5955 19.1322 53.6682 18.9782C53.8194 18.689 54.0538 18.2222 54.171 18.0389C54.296 17.8508 54.4387 17.6752 54.5972 17.5144C54.8217 17.2855 55.0607 17.0712 55.3125 16.8727C55.8095 16.483 56.3289 16.1226 56.868 15.7936C57.0702 15.6688 57.1988 15.5989 57.1988 15.5989C57.1028 14.4504 56.9087 13.3122 56.6185 12.1969C56.1271 10.2889 57.452 9.96196 57.8262 10.854C58.2005 11.7461 58.9602 15.3343 58.9602 15.3343C58.9602 15.3343 59.9393 18.2326 61.095 18.7023C62.2507 19.1719 63.4074 17.8111 64.7644 17.1392C66.1214 16.4673 67.0324 18.1334 66.0383 18.6768C65.0441 19.2201 63.5425 20.115 63.3923 21.146C63.242 22.177 61.6573 23.6153 61.6573 23.6153" stroke="black" stroke-width="0.980065" stroke-linecap="round" stroke-linejoin="round"/>
<path d="M54.5995 17.5146C54.5995 17.5146 51.2854 14.2779 50.8715 13.9406C50.1486 13.3575 49.0032 14.0615 50.1996 15.1483C51.396 16.235 53.6706 18.9784 53.6706 18.9784" stroke="black" stroke-width="0.980065" stroke-linecap="round" stroke-linejoin="round"/>
<path d="M92.1657 43.1375C92.1657 43.1375 86.8812 42.1547 83.8875 41.8826C83.7867 41.876 83.6864 41.8641 83.5869 41.8467C79.6274 41.3326 71.5854 37.494 71.5854 37.494L63.4584 23.2358L61.6828 23.7235L57.2413 24.9416L55.0508 25.5435C55.0508 25.5435 61.3209 40.8119 64.601 44.5324C66.9439 46.8922 69.453 49.0811 72.109 51.0822C76.1526 54.2744 80.1556 57.184 80.1556 57.184C80.1556 57.184 77.4152 70.4452 77.3821 72.4855C77.3886 72.8326 77.4731 73.1739 77.6294 73.4841C77.7856 73.7942 78.0095 74.0652 78.2845 74.2772C78.9108 74.79 79.6293 75.1784 80.4014 75.4216L88.7637 76.3174" stroke="black" stroke-width="0.980065" stroke-linecap="round" stroke-linejoin="round"/>
<path d="M99.9805 90.0385C101.765 89.7804 103.574 89.7461 105.367 89.9365C107.158 90.0835 108.937 90.3531 110.691 90.7435" stroke="black" stroke-width="0.980065" stroke-linecap="round" stroke-linejoin="round"/>
<path d="M116.932 88.5339C118.443 87.1532 119.696 85.5157 120.635 83.6974C121.842 81.4574 122.681 79.0379 123.119 76.5315C123.225 75.9399 123.313 75.3276 123.383 74.6888C123.856 70.3304 121.682 64.8806 117.827 61.2849C116.372 59.8488 114.606 58.7676 112.665 58.1255C110.724 57.4833 108.661 57.2975 106.637 57.5824" stroke="black" stroke-width="0.980065" stroke-linecap="round" stroke-linejoin="round"/>
<path d="M109.215 64.3789C113.519 67.3638 116.623 71.7801 117.974 76.8406C118.875 80.7492 118.511 84.8429 116.935 88.5312" stroke="black" stroke-width="0.980065" stroke-linecap="round" stroke-linejoin="round"/>
<path d="M100.578 65.2785C94.9309 69.8608 90.6084 74.8995 93.7827 87.1807C92.4787 85.5424 91.4986 83.6707 90.8948 81.6657C89.8897 78.6345 89.3143 75.4775 89.1853 72.2866C88.7921 64.8381 97.111 55.837 106.618 57.6977C107.007 57.7705 107.396 57.8659 107.785 57.9812" stroke="black" stroke-width="0.980065" stroke-linecap="round" stroke-linejoin="round"/>
<path d="M117.831 76.874C116.547 76.4336 104.223 77.6148 100.578 65.2788" stroke="black" stroke-width="0.980065" stroke-linecap="round" stroke-linejoin="round"/>
<path d="M89.1866 72.2866C89.1866 72.2866 89.0761 74.1766 89.0695 76.3123C88.9734 78.1352 89.1389 79.9625 89.5609 81.7385" stroke="black" stroke-width="0.980065" stroke-linecap="round" stroke-linejoin="round"/>
<path d="M123.097 74.3232C123.097 74.3232 123.128 75.2446 123.124 76.5289C123.113 78.9613 122.973 82.6893 122.273 83.9188" stroke="black" stroke-width="0.980065" stroke-linecap="round" stroke-linejoin="round"/>
<path d="M87.9224 90.8941C87.773 91.1848 87.6855 91.5034 87.6653 91.8296C87.6296 92.3784 87.7798 92.9233 88.0918 93.3763C88.4037 93.8292 88.8592 94.1639 89.3847 94.3262C89.9101 94.4885 90.475 94.4691 90.9881 94.271C91.5011 94.0728 91.9325 93.7076 92.2125 93.2343C92.4925 92.7609 92.6049 92.207 92.5315 91.6619C92.458 91.1169 92.2031 90.6125 91.8078 90.2301C91.4125 89.8477 90.8998 89.6097 90.3526 89.5544C89.8054 89.4991 89.2556 89.6298 88.7918 89.9254C88.418 90.1617 88.1171 90.497 87.9224 90.8941Z" stroke="black" stroke-width="0.980065" stroke-linecap="round" stroke-linejoin="round"/>
<path d="M118.061 92.7543C117.859 93.0881 117.741 93.4658 117.716 93.8552C117.677 94.452 117.858 95.0424 118.225 95.5148C118.592 95.9871 119.119 96.3085 119.707 96.4182C120.295 96.528 120.903 96.4184 121.415 96.1102C121.928 95.802 122.31 95.3167 122.489 94.7459C122.667 94.1752 122.631 93.5587 122.386 93.0132C122.141 92.4676 121.704 92.0309 121.159 91.7855C120.613 91.5401 119.997 91.5032 119.426 91.6818C118.855 91.8603 118.37 92.2419 118.061 92.7543Z" stroke="black" stroke-width="0.980065" stroke-linecap="round" stroke-linejoin="round"/>
<path d="M78.2831 74.2769C78.2831 74.2769 64.2849 88.0956 65.0371 92.7989C65.7893 97.5021 69.9312 96.2585 68.7093 98.706C67.7303 100.662 68.0753 102.078 68.9295 103.046C69.1425 103.29 69.3839 103.507 69.6487 103.693C69.8095 103.797 70.0015 103.843 70.1921 103.821C70.2976 103.816 70.4022 103.798 70.5039 103.769C72.3126 103.326 75.5048 100.203 75.5048 100.203" stroke="black" stroke-width="0.980065" stroke-linecap="round" stroke-linejoin="round"/>
<path d="M68.9297 97.7443C68.9297 97.7443 71.0729 96.5781 72.3317 92.4787C73.5904 88.3793 76.6976 85.1512 78.8815 84.8101" stroke="black" stroke-width="0.980065" stroke-linecap="round" stroke-linejoin="round"/>
<path d="M97.3732 47.5996C97.3732 47.5996 90.7913 48.0721 92.0973 50.48C93.3664 52.8207 97.1719 47.8633 97.3666 47.611" stroke="black" stroke-width="0.980065" stroke-linecap="round" stroke-linejoin="round"/>
<path d="M97.374 47.5996L97.3674 47.611C97.2568 47.9152 94.7951 54.4395 92.2266 55.3269" stroke="black" stroke-width="0.980065" stroke-linecap="round" stroke-linejoin="round"/>
<path d="M97.4297 47.5996C97.4297 47.5996 104.013 48.0721 102.706 50.48C101.399 52.8878 97.4297 47.5996 97.4297 47.5996Z" stroke="black" stroke-width="0.980065" stroke-linecap="round" stroke-linejoin="round"/>
<path d="M97.4297 47.5996C97.4297 47.5996 98.7206 53.2866 103.478 54.054" stroke="black" stroke-width="0.980065" stroke-linecap="round" stroke-linejoin="round"/>
<path d="M103.636 110.257C103.636 110.257 97.7364 110.198 97.5597 112.348C97.548 112.68 97.6323 113.008 97.8025 113.293C99.4572 116.343 103.473 110.505 103.633 110.263" stroke="black" stroke-width="0.980065" stroke-linecap="round" stroke-linejoin="round"/>
<path d="M103.639 110.257V110.264C103.558 110.584 100.913 120.754 97.5625 121.911" stroke="black" stroke-width="0.980065" stroke-linecap="round" stroke-linejoin="round"/>
<path d="M103.707 110.257C103.707 110.257 104.221 110.198 104.936 110.169C106.506 110.103 109.053 110.198 109.328 111.435C109.38 111.815 109.295 112.201 109.089 112.525C107.402 115.636 103.707 110.257 103.707 110.257Z" stroke="black" stroke-width="0.980065" stroke-linecap="round" stroke-linejoin="round"/>
<path d="M103.707 110.257C103.707 110.257 104.948 119.612 108.345 120.795" stroke="black" stroke-width="0.980065" stroke-linecap="round" stroke-linejoin="round"/>
<path d="M72.1851 51.0591L72.1086 51.0818C66.8166 52.4577 44.0345 62.8234 42.2466 86.7366C40.5739 109.112 25.4492 107.068 25.4492 107.068C25.4492 107.068 45.2942 115.585 54.8737 113.494" stroke="black" stroke-width="0.980065" stroke-linecap="round" stroke-linejoin="round"/>
<path d="M79.8574 117.794C80.4044 116.786 81.0735 115.85 81.8495 115.006C83.0525 113.578 84.3339 112.257 84.3339 112.257C84.3339 112.257 87.8776 101.99 88.5023 100.842C89.1269 99.6937 91.9733 99.4471 91.2314 102.185C90.4896 104.922 88.6856 110.705 88.6856 110.705L90.054 111.2C90.054 111.2 92.355 107.905 93.1658 107.098C93.2514 107.014 93.3531 106.949 93.4647 106.906C93.5763 106.863 93.6956 106.843 93.8151 106.848C94.7799 106.86 95.998 108.154 95.0918 110.103C95.5151 110.28 95.8776 110.577 96.1351 110.957C96.3925 111.337 96.5337 111.784 96.5414 112.242C96.5095 112.609 96.4047 112.966 96.2333 113.291C96.2333 113.291 97.6272 114.803 96.3581 118.227C94.8302 121.988 92.6363 125.442 89.882 128.424C89.2905 129.057 88.5624 129.548 87.7529 129.858C87.7529 129.858 87.4968 130.438 87.0413 131.448C86.1426 133.443 84.469 137.124 82.5176 141.27C80.2572 146.073 77.6149 151.504 75.3545 155.698C74.3549 157.629 73.2387 159.498 72.012 161.294C67.476 167.531 63.2169 167.781 61.514 170.192C59.8111 172.602 53.8529 172.037 52.4326 168.207C51.0122 164.377 49.7497 149.801 53.2217 144.694C55.3205 141.601 57.9277 134.284 59.8177 127.745C60.859 124.325 61.6706 120.838 62.2473 117.309C62.9221 111.882 67.2558 104.5 70.191 103.814C70.293 103.786 70.3975 103.769 70.5029 103.762C70.5309 103.76 70.559 103.76 70.587 103.762" stroke="black" stroke-width="0.980065" stroke-linecap="round" stroke-linejoin="round"/>
<path d="M81.7778 114.943L80.8867 113.2C80.8103 112.369 80.8077 111.532 80.8791 110.701C80.9783 108.976 79.987 106.741 78.784 106.613C78.7343 106.605 78.684 106.603 78.6338 106.606C77.3344 106.654 78.1311 109.252 78.1311 110.503C78.1311 111.753 77.3344 112.55 77.3826 113.849C77.4308 115.147 77.8447 119.511 78.1159 122.7L76.1239 128.552C76.1239 128.552 74.9388 129.592 73.1367 131.275C67.7209 136.331 56.7126 147.182 55.5352 152.887" stroke="black" stroke-width="0.980065" stroke-linecap="round" stroke-linejoin="round"/>
<path d="M74.8022 183.02C74.8022 183.02 49.6123 183.871 35.2067 183.02C13.5351 181.742 9.05859 147.222 9.05859 147.222C9.05859 147.222 27.2366 156.619 38.707 134.653C42.8699 126.743 48.3354 119.59 54.8741 113.495C59.1004 109.433 63.822 105.92 68.9272 103.04" stroke="black" stroke-width="0.980065" stroke-linecap="round" stroke-linejoin="round"/>
<path d="M75.3544 155.698L77.3947 169.854L74.7969 183.02H135.113C135.113 183.02 128.167 164.357 128.167 160.017C128.092 156.768 127.796 153.527 127.279 150.318" stroke="black" stroke-width="0.980065" stroke-linecap="round" stroke-linejoin="round"/>
<path d="M122.629 133.972C123.385 135.506 125.674 136.137 127.231 137.429C128.787 138.72 129.27 140.728 126.522 142.36C123.774 143.992 118.175 143.359 116.552 140.761C115.309 138.768 112.656 137.245 111.148 136.298C110.928 136.161 110.753 135.962 110.646 135.725C110.54 135.489 110.506 135.226 110.55 134.97L111.349 132.383C111.349 132.383 113.165 133.48 113.753 133.132C114.341 132.783 114.49 128.963 118.384 127.635C118.568 127.56 118.767 127.53 118.964 127.55C119.162 127.569 119.352 127.636 119.518 127.745C120.699 128.531 120.802 131.422 120.802 131.422L122.632 133.974" stroke="black" stroke-width="0.980065" stroke-linecap="round" stroke-linejoin="round"/>
<path d="M111.424 98.9263C110.791 101.612 110.328 104.335 110.037 107.08C109.873 108.476 109.884 109.887 110.07 111.28C110.099 111.448 110.137 111.613 110.184 111.776C111.083 114.895 111.608 124.13 112.03 128.659C112.085 129.261 111.292 132.016 111.343 132.383" stroke="black" stroke-width="0.980065" stroke-linecap="round" stroke-linejoin="round"/>
<path d="M122.057 96.2729C122.057 96.2729 122.274 97.8142 122.483 99.983C122.746 102.572 122.861 105.174 122.828 107.776C122.688 112.847 119.98 124.786 119.98 124.786L119.508 127.744" stroke="black" stroke-width="0.980065" stroke-linecap="round" stroke-linejoin="round"/>
<path d="M159.983 71.1821C159.383 71.0036 158.744 71.0051 158.145 71.1865C157.546 71.368 157.014 71.7213 156.615 72.2027C155.315 73.8829 152.681 76.8956 152.776 78.0182C153.526 78.9583 154.379 79.8113 155.319 80.5612C155.548 80.7571 155.814 80.9055 156.1 80.9978C156.134 81.0057 156.169 81.0082 156.203 81.0054C156.952 80.9392 158.889 80.1974 158.755 78.5758" stroke="black" stroke-width="0.980065" stroke-linecap="round" stroke-linejoin="round"/>
<path d="M156.734 79.4745L155.758 78.367L157.589 77.0166C157.589 77.0166 160.059 79.655 162.752 80.3043" stroke="black" stroke-width="0.980065" stroke-linecap="round" stroke-linejoin="round"/>
<path d="M150.785 78.73C151.299 79.7338 152.055 80.5931 152.986 81.2295C153.931 81.6765 155.254 80.7334 155.254 80.7334" stroke="black" stroke-width="0.980065" stroke-linecap="round" stroke-linejoin="round"/>
<path d="M156.31 69.9204C155.228 70.2209 150.744 75.7794 150.369 76.9692C150.289 77.5843 150.435 78.2079 150.78 78.7231" stroke="black" stroke-width="0.980065" stroke-linecap="round" stroke-linejoin="round"/>
<path d="M150.787 78.7299L150.78 78.7233C150.729 78.6751 150.439 78.4001 150.061 78.0108C149.268 77.1924 148.094 75.8685 147.995 75.1125C147.844 73.9671 155.465 67.458 156.419 67.4835C157.374 67.509 162.026 71.8645 163.897 72.7604C165.768 73.6562 171.676 76.6934 172.374 79.2884C172.374 79.2884 179.934 106.628 180.339 111.45C180.745 116.271 179.867 121.768 180.056 124.013C180.245 126.259 169.088 125.448 161.628 126.424C154.824 127.312 148.326 127.811 141.201 125.118C140.774 125.019 140.336 124.98 139.898 125.001C138.647 125.001 136.951 125.114 136.441 125.118C134.319 125.22 132.192 125.117 130.09 124.81" stroke="black" stroke-width="0.980065" stroke-linecap="round" stroke-linejoin="round"/>
<path d="M150.057 78.0107C150.057 78.0107 148.711 79.4604 149.639 80.807C150.584 82.1716 152.985 81.2294 152.985 81.2294" stroke="black" stroke-width="0.980065" stroke-linecap="round" stroke-linejoin="round"/>
<path d="M155.488 80.939C155.488 80.939 155.701 81.0051 156.075 81.1043C157.558 81.5003 161.556 82.4273 164.775 81.8925C164.775 81.8925 164.621 93.6861 164.702 98.7758C164.783 103.866 163.329 109.428 163.788 111.611" stroke="black" stroke-width="0.980065" stroke-linecap="round" stroke-linejoin="round"/>
<path d="M165.243 114.796L163.754 111.736C163.754 111.736 163.717 111.703 163.651 111.648C161.022 109.489 157.784 108.207 154.39 107.982C151.607 107.828 148.818 108.095 146.115 108.774L143.275 107.64C143.275 107.64 135.169 100.466 126.099 100.225C125.864 100.225 125.627 100.217 125.39 100.225C124.704 100.231 124.019 100.282 123.34 100.379" stroke="black" stroke-width="0.980065" stroke-linecap="round" stroke-linejoin="round"/>
<path d="M94.6172 98.2504L94.929 94.666" stroke="black" stroke-width="0.980065" stroke-linecap="round" stroke-linejoin="round"/>
<path d="M110.04 107.08C108.671 108.579 106.899 109.651 104.937 110.169C104.532 110.246 104.12 110.276 103.708 110.257C103.685 110.259 103.662 110.259 103.638 110.257C101.389 110.124 97.2946 105.384 95.5 104.231" stroke="black" stroke-width="0.980065" stroke-linecap="round" stroke-linejoin="round"/>
<path d="M128.33 113.295C128.33 113.295 125.968 117.302 127.531 120.252C128.326 121.756 129.148 123.323 129.926 124.89C132.169 129.388 134.061 133.884 134.014 136.871C133.911 142.936 127.281 150.318 127.281 150.318" stroke="black" stroke-width="0.980065" stroke-linecap="round" stroke-linejoin="round"/>
<path d="M89.1914 151.21C93.3409 150.883 103.67 144.312 103.707 137.682" stroke="black" stroke-width="0.980065" stroke-linecap="round" stroke-linejoin="round"/>
<path d="M143.274 107.644C143.274 107.644 142.581 120.252 139.898 125.001" stroke="black" stroke-width="0.980065" stroke-linecap="round" stroke-linejoin="round"/>
<path d="M148.176 116.197C148.176 116.197 153.999 118.414 157.877 118.307" stroke="black" stroke-width="0.980065" stroke-linecap="round" stroke-linejoin="round"/>
<path d="M124.124 88.1929C124.124 88.1929 128.824 92.3358 130.09 96.4635C130.992 99.41 128.435 100.17 126.098 100.228C125.855 100.236 125.617 100.236 125.389 100.228C124.586 100.215 123.786 100.116 123.004 99.9317" stroke="black" stroke-width="0.980065" stroke-linecap="round" stroke-linejoin="round"/>
<path d="M116.758 134.834C117.865 133.282 119.422 131.734 120.827 131.99" stroke="black" stroke-width="0.980065" stroke-linecap="round" stroke-linejoin="round"/>
<path d="M118.223 136.669C119.331 135.117 120.887 133.568 122.292 133.825" stroke="black" stroke-width="0.980065" stroke-linecap="round" stroke-linejoin="round"/>
<path d="M119.691 138.136C120.8 136.585 122.355 135.036 123.761 135.293" stroke="black" stroke-width="0.980065" stroke-linecap="round" stroke-linejoin="round"/>
<path d="M87.0938 131.469C87.41 131.345 87.735 131.245 88.0662 131.169C88.2565 131.114 88.4574 131.106 88.6515 131.145C88.8457 131.185 89.0275 131.271 89.1813 131.396C90.2746 132.302 90.0724 135.19 90.0724 135.19L91.625 137.92" stroke="black" stroke-width="0.980065" stroke-linecap="round" stroke-linejoin="round"/>
<path d="M91.6249 137.92C92.2118 139.52 94.425 140.393 95.8368 141.839C97.2486 143.285 97.518 145.335 94.6083 146.668C91.6986 148 86.2054 146.785 84.8663 144.033C84.3193 143.011 83.5978 142.092 82.7344 141.318" stroke="black" stroke-width="0.980065" stroke-linecap="round" stroke-linejoin="round"/>
<path d="M89.9574 128.505L89.1797 131.396V131.399" stroke="black" stroke-width="0.980065" stroke-linecap="round" stroke-linejoin="round"/>
<path d="M85.6953 138.159C86.9616 136.731 88.6711 135.355 90.0423 135.759" stroke="black" stroke-width="0.980065" stroke-linecap="round" stroke-linejoin="round"/>
<path d="M86.9609 140.143C88.2301 138.713 89.9367 137.341 91.3079 137.74" stroke="black" stroke-width="0.980065" stroke-linecap="round" stroke-linejoin="round"/>
<path d="M88.2695 141.755C89.5358 140.323 91.2453 138.951 92.6165 139.351" stroke="black" stroke-width="0.980065" stroke-linecap="round" stroke-linejoin="round"/>
<path d="M93.8141 106.848C94.2543 105.98 94.6212 105.077 94.9112 104.147C95.4492 102.747 95.5438 101.215 95.1824 99.7589C94.9923 99.2606 94.7695 98.7754 94.5153 98.3065C93.72 96.8757 92.8274 95.5013 91.8438 94.1929" stroke="black" stroke-width="0.980065" stroke-linecap="round" stroke-linejoin="round"/>
<path d="M87.6311 90.7435C87.6311 90.7435 81.5254 89.326 78.2822 93.9565C77.2023 95.9651 76.2736 98.0515 75.5039 100.198L80.1164 104.234C79.8873 105.013 79.7121 105.806 79.592 106.609" stroke="black" stroke-width="0.980065" stroke-linecap="round" stroke-linejoin="round"/>
<path d="M80.1172 104.232L81.7757 102.721" stroke="black" stroke-width="0.980065" stroke-linecap="round" stroke-linejoin="round"/>
<path d="M59.8164 127.745C60.0479 127.833 69.3496 131.352 72.9963 131.128" stroke="black" stroke-width="0.980065" stroke-linecap="round" stroke-linejoin="round"/>
<path d="M104.954 87.5473C104.618 87.5763 104.281 87.4936 103.996 87.312" stroke="black" stroke-width="0.980065" stroke-linecap="round" stroke-linejoin="round"/>
</svg>
